<svg xmlns="http://www.w3.org/2000/svg" version="1.0" viewBox="0 0 1568 1568"><path d="M225.5 243c-1.3 2.6-1.5 46-1.5 400v397H0v155h224v143.1l2.5 2.4 2.4 2.5h125.6c80 0 126.3-.4 127.5-1 3.8-2.1 4-5.1 4-77.1V1195h499v143.1l2.5 2.4 2.4 2.5h126.5c100.1 0 126.7-.3 127.3-1.3.4-.6.9-33.9 1.1-73.9l.3-72.8H1458v-155h-213l-.1-396.8c-.1-218.2-.4-398.1-.8-399.7l-.6-3-166.5-.3-166.4-.2-2.3 2.7c-1.2 1.6-2.2 3.3-2.3 3.9 0 .6-.9 1.9-1.9 2.8-1.1 1-2.5 4.1-3.2 6.9-.6 2.9-2 6.3-3.1 7.6-1 1.3-2.1 4.2-2.5 6.3-.3 2.2-1.7 5.5-3 7.5-1.3 1.9-2.8 5.7-3.3 8.4s-1.8 5.7-2.9 6.8c-1 1-2.4 4.3-3 7.2-.7 3-2 6.3-3 7.4s-2.4 4.2-3.1 7c-.7 2.7-2.1 6.3-3.2 7.8-1.1 1.6-2.2 4.5-2.5 6.5-.4 2-1.7 5.4-3.1 7.4-1.3 2.1-2.9 5.9-3.3 8.5-.5 2.6-1.8 5.6-2.8 6.7-1.1 1.2-2.5 4.3-3.2 7.1-.7 2.7-2 6.1-3 7.5-.9 1.4-2.4 5-3.3 8.1s-2.2 6.2-3 6.9c-.8.6-1.8 3.3-2.2 5.8-.3 2.6-1.5 5.6-2.5 6.7-2.1 2.4-3.9 6.8-3.9 9.8 0 1.1-1.1 3.7-2.4 5.6-1.4 2-3.1 5.8-3.7 8.6-.7 2.7-2.1 5.9-3.1 7-1 1.2-2.1 3.6-2.4 5.5-.4 1.9-2 5.9-3.6 8.9-1.5 3-2.8 6.6-2.8 8.2 0 1.5-1.1 4.1-2.5 5.7-1.4 1.7-2.9 5.3-3.5 8.3-.6 2.9-1.7 5.7-2.5 6.2-.8.4-2.4 3.8-3.5 7.6s-2.7 7.4-3.4 8c-.8.7-1.7 3.1-2.1 5.4s-1.8 5.8-3.1 7.7c-1.3 2-2.8 5.7-3.2 8.2-.5 2.5-1.8 5.8-3 7.2-1.1 1.5-2.6 5-3.2 7.9-.7 2.8-2 6.1-3 7.2-.9 1.1-2.3 4.2-2.9 6.9-.7 2.7-2.1 6-3.2 7.4-1 1.4-2.2 4.3-2.6 6.4-.3 2.2-1.6 5.5-2.9 7.4s-2.7 5.4-3 7.7c-.4 2.3-1.7 5.4-3 6.9-1.2 1.5-2.8 5.2-3.4 8.2s-1.8 6-2.6 6.7c-.8.6-2.2 3.7-3 6.8-.9 3.1-2.5 6.6-3.5 7.9-.9 1.2-2.1 4.1-2.4 6.4-.4 2.3-1.8 5.8-3.1 7.8s-2.8 5.7-3.3 8.3c-.5 2.7-1.8 5.8-2.9 7-1.2 1.3-2.6 4.6-3.2 7.4s-1.8 5.7-2.6 6.4c-.7.6-1.9 2.9-2.4 5-1 3.4-3 5.5-3 3 0-.5-1.1-2.2-2.4-3.8-1.3-1.5-2.7-4.7-3.1-7-.4-2.4-1.8-5.9-3.1-7.9-1.4-2-2.9-5.6-3.3-7.9-.4-2.4-1.8-5.5-2.9-7-1.2-1.5-2.4-4.3-2.8-6.4-.3-2-1.4-4.8-2.4-6.2-1-1.5-2.6-5.2-3.5-8.3s-2.4-6.4-3.4-7.4c-1-.9-2.3-4.2-3-7.3-.6-3.1-2.1-6.5-3.1-7.4-1.1-1-2.2-3.7-2.6-6.1-.3-2.4-1.4-5.4-2.3-6.7-1.8-2.3-3.6-6.6-4.5-10.8-.3-1.4-1.4-3.5-2.4-4.7-1.1-1.2-2.2-4-2.6-6.1-.3-2.2-1.7-5.2-3-6.8-1.3-1.5-2.7-4.8-3.1-7.2s-2-6.4-3.6-8.9-2.9-5.8-2.9-7.3c0-1.4-.9-3.7-1.9-5-1-1.4-2.6-4.9-3.5-7.8-.9-3-2.2-6.1-3-7s-2.2-4.4-3.1-7.9c-1-3.5-2.6-6.8-3.5-7.5-1-.7-2.1-3.2-2.5-5.7s-1.7-6.1-3-8-2.8-5.4-3.4-7.8c-.5-2.4-1.6-5.1-2.4-6s-2.3-4.2-3.2-7.3c-.8-3.1-2.4-6.6-3.4-7.8s-2.2-4.1-2.5-6.5c-.4-2.6-1.7-5.4-3-6.8-1.4-1.3-2.6-4.2-3.1-6.8-.4-2.5-1.8-6.2-3.1-8.2s-2.8-5.6-3.3-7.8c-.5-2.3-1.6-4.9-2.4-5.8-.9-.9-2.1-4-2.8-6.7-.7-2.8-2.2-6.2-3.4-7.7-1.3-1.5-2.6-4.7-2.9-7.2-.4-2.5-1.8-5.8-3-7.3-1.3-1.6-2.7-4.7-3.1-7-.3-2.3-1.5-5.3-2.5-6.5-1-1.3-2.5-4.8-3.4-7.7-.9-3-2.2-6.1-3-7s-2.1-4.3-3-7.6c-.8-3.2-2.4-6.6-3.4-7.5-1.2-.9-2.2-3.4-2.6-6.2-.4-2.7-1.7-6-3-7.5-1.3-1.6-2.6-4.5-3-6.5-.4-2.1-2-6.3-3.6-9.4-1.7-3.1-3-6.4-3-7.4 0-.9-.9-2.8-1.9-4.2-1.1-1.3-2.6-5-3.5-8.2-.8-3.2-2.4-6.8-3.4-8-1.1-1.1-2.3-4.1-2.7-6.5-.5-3.1-1.9-5.6-4.7-8.7l-4.1-4.4H227.1zM985 859v181H486V861.2c0-113.6.4-179.2 1-180.2.8-1.3 1-1.3 1 .1 0 .9.9 2.8 2.1 4.2 1.1 1.5 2.7 4.7 3.6 7.2.8 2.5 2.3 5 3.3 5.5s2 2.6 2.4 4.9c.3 2.2 1.7 5.2 3 6.8s2.9 4.7 3.5 7c.6 2.2 1.7 4.3 2.4 4.6s1.9 2.4 2.7 4.8 2.4 5.6 3.6 7.1 2.4 4.2 2.8 6.2c.4 1.9 1.7 4.3 3 5.4 1.5 1.1 2.6 3.4 3.1 5.9.3 2.3 1.5 4.9 2.5 5.8 1.1 1 2.6 3.9 3.5 6.5.9 2.7 2.2 5.4 3 6s2.1 3.4 3 6.1c1 2.8 2.3 5.3 3.1 5.6.7.2 2 2.9 2.9 5.9.8 3 2.4 5.8 3.4 6.3 1.1.6 2.1 2.6 2.5 5 .3 2.2 1.7 5.2 3 6.6s2.9 4.5 3.5 6.9 1.7 4.6 2.5 4.9 2 2.5 2.6 4.9c.7 2.4 2.2 5.4 3.5 6.8 1.2 1.4 2.5 4.1 2.9 6.1.3 2 1.7 4.6 3 5.8 1.3 1.3 2.7 3.8 3 5.6.4 1.8 1.6 4.4 2.6 5.8 1.1 1.4 2.7 4.5 3.6 6.9.8 2.3 2.3 5.2 3.3 6.3s2.3 3.9 3 6.2c.6 2.4 2 4.7 3 5.2 1.1.6 2.1 2.7 2.5 5.1s1.6 5.1 3 6.4c1.4 1.2 2.7 3.9 3.1 6 .4 2 1.8 4.9 3 6.4s2.7 4.4 3.4 6.4 1.9 4.2 2.6 4.8c.8.7 2 3 2.5 5.1.6 2.1 2.1 5.1 3.4 6.6s2.7 4.3 3.1 6.1c.3 1.8 1.7 4.5 2.9 6s2.8 4.6 3.4 6.9c1 3.2 2.3 5 5.7 7.3l4.4 3 106.3-.1c81.8 0 107.1-.3 109.8-1.3 2.2-.8 4.1-2.4 5-4.2.9-1.7 2.6-4.3 3.8-5.9 1.2-1.5 2.2-3.7 2.2-4.9 0-1.1 1.4-3.9 3-6 1.7-2.2 3-4.9 3-6.1s1.3-3.9 2.9-5.9 3.2-5.3 3.6-7.3c.4-2.1 1.5-4.3 2.4-5 1-.7 2.4-3.2 3.1-5.7s2.1-5.3 3.1-6.2 2.2-3.3 2.5-5.3c.4-2 1.4-4.5 2.4-5.6 2.5-2.8 4-6 4-8.4 0-1.1 1.1-3.2 2.5-4.7s3-4.5 3.6-6.8c.6-2.2 2.2-5.3 3.5-6.9s2.4-3.7 2.4-4.6c0-1 1.3-3.8 3-6.2 1.6-2.4 3-5.3 3-6.4s1.4-3.8 3-5.9c1.7-2.2 3-4.9 3-6.1s1.1-3.6 2.5-5.5c1.3-1.8 3-4.9 3.6-6.9s1.9-4.5 2.9-5.6 2.2-3.6 2.8-5.5c.5-1.9 2.1-5.3 3.6-7.4 1.4-2.1 2.6-4.8 2.6-5.8 0-1.1 1.1-3.3 2.5-5 1.3-1.6 3-4.8 3.6-7.1s2.2-5.4 3.5-7 2.4-3.7 2.4-4.6c0-1 1.3-3.8 3-6.2 1.6-2.4 3-5.1 3-6s1.1-3.2 2.4-5.2c1.4-2 2.9-5.1 3.4-6.9s2.1-5 3.5-7.1 2.9-5.2 3.2-6.9c.4-1.7 1.6-4 2.6-5.1s2.5-3.9 3.3-6.4c.8-2.4 2.2-5 3-5.9.9-.8 2-3.2 2.6-5.2.5-2.1 2.1-5.3 3.5-7.2s2.5-4.4 2.5-5.6 1.1-3.6 2.5-5.2c1.4-1.7 3-4.4 3.6-6.1s1.3-3.1 1.5-3.1.4 81.4.4 181"/></svg>